<mxfile host="Electron" modified="2023-06-27T07:49:12.263Z" agent="Mozilla/5.0 (Windows NT 10.0; Win64; x64) AppleWebKit/537.36 (KHTML, like Gecko) draw.io/21.5.0 Chrome/112.0.5615.204 Electron/24.5.1 Safari/537.36" etag="Dtloh-Q_k0QXuU2H0RQs" version="21.5.0" type="device">
  <diagram name="第 1 页" id="QSto1wK90FdwHgzO5Uh2">
    <mxGraphModel dx="1353" dy="1995" grid="1" gridSize="10" guides="1" tooltips="1" connect="1" arrows="1" fold="1" page="1" pageScale="1" pageWidth="1169" pageHeight="827" math="0" shadow="0">
      <root>
        <mxCell id="0" />
        <mxCell id="1" parent="0" />
        <mxCell id="aLk7saEssHCHjSoOLKpw-269" value="" style="rounded=1;whiteSpace=wrap;html=1;" vertex="1" parent="1">
          <mxGeometry x="167.25" y="1780" width="200" height="180" as="geometry" />
        </mxCell>
        <mxCell id="aLk7saEssHCHjSoOLKpw-206" value="&lt;font style=&quot;font-size: 20px;&quot;&gt;EXEC2&lt;/font&gt;" style="rounded=1;whiteSpace=wrap;html=1;" vertex="1" parent="1">
          <mxGeometry x="568.75" y="550" width="262.5" height="200" as="geometry" />
        </mxCell>
        <mxCell id="aLk7saEssHCHjSoOLKpw-205" value="&lt;font style=&quot;font-size: 20px;&quot;&gt;EXEC1&lt;/font&gt;" style="rounded=1;whiteSpace=wrap;html=1;" vertex="1" parent="1">
          <mxGeometry x="248.75" y="550" width="262.5" height="200" as="geometry" />
        </mxCell>
        <mxCell id="aLk7saEssHCHjSoOLKpw-65" value="" style="rounded=1;whiteSpace=wrap;html=1;" vertex="1" parent="1">
          <mxGeometry x="110" y="339" width="850" height="150" as="geometry" />
        </mxCell>
        <mxCell id="aLk7saEssHCHjSoOLKpw-66" value="" style="endArrow=classic;html=1;rounded=0;strokeWidth=3;entryX=0.106;entryY=1.001;entryDx=0;entryDy=0;entryPerimeter=0;" edge="1" parent="1">
          <mxGeometry width="50" height="50" relative="1" as="geometry">
            <mxPoint x="314.09" y="550" as="sourcePoint" />
            <mxPoint x="313.75000000000006" y="489.14999999999986" as="targetPoint" />
          </mxGeometry>
        </mxCell>
        <mxCell id="aLk7saEssHCHjSoOLKpw-82" value="" style="rounded=0;whiteSpace=wrap;html=1;" vertex="1" parent="1">
          <mxGeometry x="295" y="390" width="30" height="30" as="geometry" />
        </mxCell>
        <mxCell id="aLk7saEssHCHjSoOLKpw-83" value="" style="rounded=0;whiteSpace=wrap;html=1;" vertex="1" parent="1">
          <mxGeometry x="325" y="390" width="30" height="30" as="geometry" />
        </mxCell>
        <mxCell id="aLk7saEssHCHjSoOLKpw-84" value="" style="rounded=0;whiteSpace=wrap;html=1;" vertex="1" parent="1">
          <mxGeometry x="355" y="390" width="30" height="30" as="geometry" />
        </mxCell>
        <mxCell id="aLk7saEssHCHjSoOLKpw-85" value="" style="rounded=0;whiteSpace=wrap;html=1;" vertex="1" parent="1">
          <mxGeometry x="355" y="390" width="30" height="30" as="geometry" />
        </mxCell>
        <mxCell id="aLk7saEssHCHjSoOLKpw-86" value="" style="rounded=0;whiteSpace=wrap;html=1;" vertex="1" parent="1">
          <mxGeometry x="325" y="390" width="30" height="30" as="geometry" />
        </mxCell>
        <mxCell id="aLk7saEssHCHjSoOLKpw-87" value="x0" style="rounded=0;whiteSpace=wrap;html=1;" vertex="1" parent="1">
          <mxGeometry x="295" y="390" width="30" height="30" as="geometry" />
        </mxCell>
        <mxCell id="aLk7saEssHCHjSoOLKpw-88" value="" style="rounded=0;whiteSpace=wrap;html=1;" vertex="1" parent="1">
          <mxGeometry x="445" y="390" width="30" height="30" as="geometry" />
        </mxCell>
        <mxCell id="aLk7saEssHCHjSoOLKpw-89" value="" style="rounded=0;whiteSpace=wrap;html=1;" vertex="1" parent="1">
          <mxGeometry x="415" y="390" width="30" height="30" as="geometry" />
        </mxCell>
        <mxCell id="aLk7saEssHCHjSoOLKpw-90" value="x3" style="rounded=0;whiteSpace=wrap;html=1;" vertex="1" parent="1">
          <mxGeometry x="385" y="390" width="30" height="30" as="geometry" />
        </mxCell>
        <mxCell id="aLk7saEssHCHjSoOLKpw-91" value="" style="rounded=0;whiteSpace=wrap;html=1;" vertex="1" parent="1">
          <mxGeometry x="445" y="390" width="30" height="30" as="geometry" />
        </mxCell>
        <mxCell id="aLk7saEssHCHjSoOLKpw-92" value="" style="rounded=0;whiteSpace=wrap;html=1;" vertex="1" parent="1">
          <mxGeometry x="415" y="390" width="30" height="30" as="geometry" />
        </mxCell>
        <mxCell id="aLk7saEssHCHjSoOLKpw-93" value="" style="rounded=0;whiteSpace=wrap;html=1;" vertex="1" parent="1">
          <mxGeometry x="445" y="390" width="30" height="30" as="geometry" />
        </mxCell>
        <mxCell id="aLk7saEssHCHjSoOLKpw-94" value="" style="rounded=0;whiteSpace=wrap;html=1;" vertex="1" parent="1">
          <mxGeometry x="415" y="390" width="30" height="30" as="geometry" />
        </mxCell>
        <mxCell id="aLk7saEssHCHjSoOLKpw-95" value="" style="rounded=0;whiteSpace=wrap;html=1;" vertex="1" parent="1">
          <mxGeometry x="355" y="390" width="30" height="30" as="geometry" />
        </mxCell>
        <mxCell id="aLk7saEssHCHjSoOLKpw-96" value="" style="rounded=0;whiteSpace=wrap;html=1;" vertex="1" parent="1">
          <mxGeometry x="445" y="390" width="30" height="30" as="geometry" />
        </mxCell>
        <mxCell id="aLk7saEssHCHjSoOLKpw-97" value="" style="rounded=0;whiteSpace=wrap;html=1;" vertex="1" parent="1">
          <mxGeometry x="415" y="390" width="30" height="30" as="geometry" />
        </mxCell>
        <mxCell id="aLk7saEssHCHjSoOLKpw-98" value="x2" style="rounded=0;whiteSpace=wrap;html=1;" vertex="1" parent="1">
          <mxGeometry x="355" y="390" width="30" height="30" as="geometry" />
        </mxCell>
        <mxCell id="aLk7saEssHCHjSoOLKpw-99" value="" style="rounded=0;whiteSpace=wrap;html=1;" vertex="1" parent="1">
          <mxGeometry x="505" y="390" width="30" height="30" as="geometry" />
        </mxCell>
        <mxCell id="aLk7saEssHCHjSoOLKpw-100" value="" style="rounded=0;whiteSpace=wrap;html=1;" vertex="1" parent="1">
          <mxGeometry x="565" y="390" width="30" height="30" as="geometry" />
        </mxCell>
        <mxCell id="aLk7saEssHCHjSoOLKpw-101" value="" style="rounded=0;whiteSpace=wrap;html=1;" vertex="1" parent="1">
          <mxGeometry x="535" y="390" width="30" height="30" as="geometry" />
        </mxCell>
        <mxCell id="aLk7saEssHCHjSoOLKpw-102" value="" style="rounded=0;whiteSpace=wrap;html=1;" vertex="1" parent="1">
          <mxGeometry x="475" y="390" width="30" height="30" as="geometry" />
        </mxCell>
        <mxCell id="aLk7saEssHCHjSoOLKpw-103" value="" style="rounded=0;whiteSpace=wrap;html=1;" vertex="1" parent="1">
          <mxGeometry x="565" y="390" width="30" height="30" as="geometry" />
        </mxCell>
        <mxCell id="aLk7saEssHCHjSoOLKpw-104" value="" style="rounded=0;whiteSpace=wrap;html=1;" vertex="1" parent="1">
          <mxGeometry x="535" y="390" width="30" height="30" as="geometry" />
        </mxCell>
        <mxCell id="aLk7saEssHCHjSoOLKpw-105" value="" style="rounded=0;whiteSpace=wrap;html=1;" vertex="1" parent="1">
          <mxGeometry x="505" y="390" width="30" height="30" as="geometry" />
        </mxCell>
        <mxCell id="aLk7saEssHCHjSoOLKpw-106" value="" style="rounded=0;whiteSpace=wrap;html=1;" vertex="1" parent="1">
          <mxGeometry x="475" y="390" width="30" height="30" as="geometry" />
        </mxCell>
        <mxCell id="aLk7saEssHCHjSoOLKpw-107" value="" style="rounded=0;whiteSpace=wrap;html=1;" vertex="1" parent="1">
          <mxGeometry x="445" y="390" width="30" height="30" as="geometry" />
        </mxCell>
        <mxCell id="aLk7saEssHCHjSoOLKpw-108" value="" style="rounded=0;whiteSpace=wrap;html=1;" vertex="1" parent="1">
          <mxGeometry x="415" y="390" width="30" height="30" as="geometry" />
        </mxCell>
        <mxCell id="aLk7saEssHCHjSoOLKpw-109" value="" style="rounded=0;whiteSpace=wrap;html=1;" vertex="1" parent="1">
          <mxGeometry x="565" y="390" width="30" height="30" as="geometry" />
        </mxCell>
        <mxCell id="aLk7saEssHCHjSoOLKpw-110" value="" style="rounded=0;whiteSpace=wrap;html=1;" vertex="1" parent="1">
          <mxGeometry x="535" y="390" width="30" height="30" as="geometry" />
        </mxCell>
        <mxCell id="aLk7saEssHCHjSoOLKpw-111" value="" style="rounded=0;whiteSpace=wrap;html=1;" vertex="1" parent="1">
          <mxGeometry x="505" y="390" width="30" height="30" as="geometry" />
        </mxCell>
        <mxCell id="aLk7saEssHCHjSoOLKpw-112" value="" style="rounded=0;whiteSpace=wrap;html=1;" vertex="1" parent="1">
          <mxGeometry x="475" y="390" width="30" height="30" as="geometry" />
        </mxCell>
        <mxCell id="aLk7saEssHCHjSoOLKpw-113" value="" style="rounded=0;whiteSpace=wrap;html=1;" vertex="1" parent="1">
          <mxGeometry x="445" y="390" width="30" height="30" as="geometry" />
        </mxCell>
        <mxCell id="aLk7saEssHCHjSoOLKpw-114" value="" style="rounded=0;whiteSpace=wrap;html=1;" vertex="1" parent="1">
          <mxGeometry x="415" y="390" width="30" height="30" as="geometry" />
        </mxCell>
        <mxCell id="aLk7saEssHCHjSoOLKpw-115" value="" style="rounded=0;whiteSpace=wrap;html=1;" vertex="1" parent="1">
          <mxGeometry x="565" y="390" width="30" height="30" as="geometry" />
        </mxCell>
        <mxCell id="aLk7saEssHCHjSoOLKpw-116" value="" style="rounded=0;whiteSpace=wrap;html=1;" vertex="1" parent="1">
          <mxGeometry x="535" y="390" width="30" height="30" as="geometry" />
        </mxCell>
        <mxCell id="aLk7saEssHCHjSoOLKpw-117" value="" style="rounded=0;whiteSpace=wrap;html=1;" vertex="1" parent="1">
          <mxGeometry x="505" y="390" width="30" height="30" as="geometry" />
        </mxCell>
        <mxCell id="aLk7saEssHCHjSoOLKpw-118" value="" style="rounded=0;whiteSpace=wrap;html=1;" vertex="1" parent="1">
          <mxGeometry x="475" y="390" width="30" height="30" as="geometry" />
        </mxCell>
        <mxCell id="aLk7saEssHCHjSoOLKpw-119" value="" style="rounded=0;whiteSpace=wrap;html=1;" vertex="1" parent="1">
          <mxGeometry x="445" y="390" width="30" height="30" as="geometry" />
        </mxCell>
        <mxCell id="aLk7saEssHCHjSoOLKpw-120" value="" style="rounded=0;whiteSpace=wrap;html=1;" vertex="1" parent="1">
          <mxGeometry x="415" y="390" width="30" height="30" as="geometry" />
        </mxCell>
        <mxCell id="aLk7saEssHCHjSoOLKpw-121" value="" style="rounded=0;whiteSpace=wrap;html=1;" vertex="1" parent="1">
          <mxGeometry x="325" y="390" width="30" height="30" as="geometry" />
        </mxCell>
        <mxCell id="aLk7saEssHCHjSoOLKpw-122" value="x9" style="rounded=0;whiteSpace=wrap;html=1;" vertex="1" parent="1">
          <mxGeometry x="565" y="390" width="30" height="30" as="geometry" />
        </mxCell>
        <mxCell id="aLk7saEssHCHjSoOLKpw-123" value="x8" style="rounded=0;whiteSpace=wrap;html=1;" vertex="1" parent="1">
          <mxGeometry x="535" y="390" width="30" height="30" as="geometry" />
        </mxCell>
        <mxCell id="aLk7saEssHCHjSoOLKpw-124" value="x7" style="rounded=0;whiteSpace=wrap;html=1;" vertex="1" parent="1">
          <mxGeometry x="505" y="390" width="30" height="30" as="geometry" />
        </mxCell>
        <mxCell id="aLk7saEssHCHjSoOLKpw-125" value="x6" style="rounded=0;whiteSpace=wrap;html=1;" vertex="1" parent="1">
          <mxGeometry x="475" y="390" width="30" height="30" as="geometry" />
        </mxCell>
        <mxCell id="aLk7saEssHCHjSoOLKpw-126" value="x5" style="rounded=0;whiteSpace=wrap;html=1;" vertex="1" parent="1">
          <mxGeometry x="445" y="390" width="30" height="30" as="geometry" />
        </mxCell>
        <mxCell id="aLk7saEssHCHjSoOLKpw-127" value="x4" style="rounded=0;whiteSpace=wrap;html=1;" vertex="1" parent="1">
          <mxGeometry x="415" y="390" width="30" height="30" as="geometry" />
        </mxCell>
        <mxCell id="aLk7saEssHCHjSoOLKpw-128" value="x1" style="rounded=0;whiteSpace=wrap;html=1;" vertex="1" parent="1">
          <mxGeometry x="325" y="390" width="30" height="30" as="geometry" />
        </mxCell>
        <mxCell id="aLk7saEssHCHjSoOLKpw-129" value="x10" style="rounded=0;whiteSpace=wrap;html=1;" vertex="1" parent="1">
          <mxGeometry x="595" y="390" width="30" height="30" as="geometry" />
        </mxCell>
        <mxCell id="aLk7saEssHCHjSoOLKpw-130" value="x13" style="rounded=0;whiteSpace=wrap;html=1;" vertex="1" parent="1">
          <mxGeometry x="685" y="390" width="30" height="30" as="geometry" />
        </mxCell>
        <mxCell id="aLk7saEssHCHjSoOLKpw-131" value="x12" style="rounded=0;whiteSpace=wrap;html=1;" vertex="1" parent="1">
          <mxGeometry x="655" y="390" width="30" height="30" as="geometry" />
        </mxCell>
        <mxCell id="aLk7saEssHCHjSoOLKpw-136" value="x15" style="rounded=0;whiteSpace=wrap;html=1;" vertex="1" parent="1">
          <mxGeometry x="745" y="390" width="30" height="30" as="geometry" />
        </mxCell>
        <mxCell id="aLk7saEssHCHjSoOLKpw-137" value="x14" style="rounded=0;whiteSpace=wrap;html=1;" vertex="1" parent="1">
          <mxGeometry x="715" y="390" width="30" height="30" as="geometry" />
        </mxCell>
        <mxCell id="aLk7saEssHCHjSoOLKpw-138" value="x11" style="rounded=0;whiteSpace=wrap;html=1;" vertex="1" parent="1">
          <mxGeometry x="625" y="390" width="30" height="30" as="geometry" />
        </mxCell>
        <mxCell id="aLk7saEssHCHjSoOLKpw-141" value="" style="rounded=0;whiteSpace=wrap;html=1;" vertex="1" parent="1">
          <mxGeometry x="295" y="420" width="30" height="30" as="geometry" />
        </mxCell>
        <mxCell id="aLk7saEssHCHjSoOLKpw-142" value="" style="rounded=0;whiteSpace=wrap;html=1;" vertex="1" parent="1">
          <mxGeometry x="325" y="420" width="30" height="30" as="geometry" />
        </mxCell>
        <mxCell id="aLk7saEssHCHjSoOLKpw-143" value="" style="rounded=0;whiteSpace=wrap;html=1;" vertex="1" parent="1">
          <mxGeometry x="355" y="420" width="30" height="30" as="geometry" />
        </mxCell>
        <mxCell id="aLk7saEssHCHjSoOLKpw-144" value="" style="rounded=0;whiteSpace=wrap;html=1;" vertex="1" parent="1">
          <mxGeometry x="355" y="420" width="30" height="30" as="geometry" />
        </mxCell>
        <mxCell id="aLk7saEssHCHjSoOLKpw-145" value="" style="rounded=0;whiteSpace=wrap;html=1;" vertex="1" parent="1">
          <mxGeometry x="325" y="420" width="30" height="30" as="geometry" />
        </mxCell>
        <mxCell id="aLk7saEssHCHjSoOLKpw-146" value="x16" style="rounded=0;whiteSpace=wrap;html=1;" vertex="1" parent="1">
          <mxGeometry x="295" y="420" width="30" height="30" as="geometry" />
        </mxCell>
        <mxCell id="aLk7saEssHCHjSoOLKpw-147" value="" style="rounded=0;whiteSpace=wrap;html=1;" vertex="1" parent="1">
          <mxGeometry x="445" y="420" width="30" height="30" as="geometry" />
        </mxCell>
        <mxCell id="aLk7saEssHCHjSoOLKpw-148" value="" style="rounded=0;whiteSpace=wrap;html=1;" vertex="1" parent="1">
          <mxGeometry x="415" y="420" width="30" height="30" as="geometry" />
        </mxCell>
        <mxCell id="aLk7saEssHCHjSoOLKpw-149" value="x19" style="rounded=0;whiteSpace=wrap;html=1;" vertex="1" parent="1">
          <mxGeometry x="385" y="420" width="30" height="30" as="geometry" />
        </mxCell>
        <mxCell id="aLk7saEssHCHjSoOLKpw-150" value="" style="rounded=0;whiteSpace=wrap;html=1;" vertex="1" parent="1">
          <mxGeometry x="445" y="420" width="30" height="30" as="geometry" />
        </mxCell>
        <mxCell id="aLk7saEssHCHjSoOLKpw-151" value="" style="rounded=0;whiteSpace=wrap;html=1;" vertex="1" parent="1">
          <mxGeometry x="415" y="420" width="30" height="30" as="geometry" />
        </mxCell>
        <mxCell id="aLk7saEssHCHjSoOLKpw-152" value="" style="rounded=0;whiteSpace=wrap;html=1;" vertex="1" parent="1">
          <mxGeometry x="445" y="420" width="30" height="30" as="geometry" />
        </mxCell>
        <mxCell id="aLk7saEssHCHjSoOLKpw-153" value="" style="rounded=0;whiteSpace=wrap;html=1;" vertex="1" parent="1">
          <mxGeometry x="415" y="420" width="30" height="30" as="geometry" />
        </mxCell>
        <mxCell id="aLk7saEssHCHjSoOLKpw-154" value="" style="rounded=0;whiteSpace=wrap;html=1;" vertex="1" parent="1">
          <mxGeometry x="355" y="420" width="30" height="30" as="geometry" />
        </mxCell>
        <mxCell id="aLk7saEssHCHjSoOLKpw-155" value="" style="rounded=0;whiteSpace=wrap;html=1;" vertex="1" parent="1">
          <mxGeometry x="445" y="420" width="30" height="30" as="geometry" />
        </mxCell>
        <mxCell id="aLk7saEssHCHjSoOLKpw-156" value="" style="rounded=0;whiteSpace=wrap;html=1;" vertex="1" parent="1">
          <mxGeometry x="415" y="420" width="30" height="30" as="geometry" />
        </mxCell>
        <mxCell id="aLk7saEssHCHjSoOLKpw-157" value="x18" style="rounded=0;whiteSpace=wrap;html=1;" vertex="1" parent="1">
          <mxGeometry x="355" y="420" width="30" height="30" as="geometry" />
        </mxCell>
        <mxCell id="aLk7saEssHCHjSoOLKpw-158" value="" style="rounded=0;whiteSpace=wrap;html=1;" vertex="1" parent="1">
          <mxGeometry x="505" y="420" width="30" height="30" as="geometry" />
        </mxCell>
        <mxCell id="aLk7saEssHCHjSoOLKpw-159" value="" style="rounded=0;whiteSpace=wrap;html=1;" vertex="1" parent="1">
          <mxGeometry x="565" y="420" width="30" height="30" as="geometry" />
        </mxCell>
        <mxCell id="aLk7saEssHCHjSoOLKpw-160" value="" style="rounded=0;whiteSpace=wrap;html=1;" vertex="1" parent="1">
          <mxGeometry x="535" y="420" width="30" height="30" as="geometry" />
        </mxCell>
        <mxCell id="aLk7saEssHCHjSoOLKpw-161" value="" style="rounded=0;whiteSpace=wrap;html=1;" vertex="1" parent="1">
          <mxGeometry x="475" y="420" width="30" height="30" as="geometry" />
        </mxCell>
        <mxCell id="aLk7saEssHCHjSoOLKpw-162" value="" style="rounded=0;whiteSpace=wrap;html=1;" vertex="1" parent="1">
          <mxGeometry x="565" y="420" width="30" height="30" as="geometry" />
        </mxCell>
        <mxCell id="aLk7saEssHCHjSoOLKpw-163" value="" style="rounded=0;whiteSpace=wrap;html=1;" vertex="1" parent="1">
          <mxGeometry x="535" y="420" width="30" height="30" as="geometry" />
        </mxCell>
        <mxCell id="aLk7saEssHCHjSoOLKpw-164" value="" style="rounded=0;whiteSpace=wrap;html=1;" vertex="1" parent="1">
          <mxGeometry x="505" y="420" width="30" height="30" as="geometry" />
        </mxCell>
        <mxCell id="aLk7saEssHCHjSoOLKpw-165" value="" style="rounded=0;whiteSpace=wrap;html=1;" vertex="1" parent="1">
          <mxGeometry x="475" y="420" width="30" height="30" as="geometry" />
        </mxCell>
        <mxCell id="aLk7saEssHCHjSoOLKpw-166" value="" style="rounded=0;whiteSpace=wrap;html=1;" vertex="1" parent="1">
          <mxGeometry x="445" y="420" width="30" height="30" as="geometry" />
        </mxCell>
        <mxCell id="aLk7saEssHCHjSoOLKpw-167" value="" style="rounded=0;whiteSpace=wrap;html=1;" vertex="1" parent="1">
          <mxGeometry x="415" y="420" width="30" height="30" as="geometry" />
        </mxCell>
        <mxCell id="aLk7saEssHCHjSoOLKpw-168" value="" style="rounded=0;whiteSpace=wrap;html=1;" vertex="1" parent="1">
          <mxGeometry x="565" y="420" width="30" height="30" as="geometry" />
        </mxCell>
        <mxCell id="aLk7saEssHCHjSoOLKpw-169" value="" style="rounded=0;whiteSpace=wrap;html=1;" vertex="1" parent="1">
          <mxGeometry x="535" y="420" width="30" height="30" as="geometry" />
        </mxCell>
        <mxCell id="aLk7saEssHCHjSoOLKpw-170" value="" style="rounded=0;whiteSpace=wrap;html=1;" vertex="1" parent="1">
          <mxGeometry x="505" y="420" width="30" height="30" as="geometry" />
        </mxCell>
        <mxCell id="aLk7saEssHCHjSoOLKpw-171" value="" style="rounded=0;whiteSpace=wrap;html=1;" vertex="1" parent="1">
          <mxGeometry x="475" y="420" width="30" height="30" as="geometry" />
        </mxCell>
        <mxCell id="aLk7saEssHCHjSoOLKpw-172" value="" style="rounded=0;whiteSpace=wrap;html=1;" vertex="1" parent="1">
          <mxGeometry x="445" y="420" width="30" height="30" as="geometry" />
        </mxCell>
        <mxCell id="aLk7saEssHCHjSoOLKpw-173" value="" style="rounded=0;whiteSpace=wrap;html=1;" vertex="1" parent="1">
          <mxGeometry x="415" y="420" width="30" height="30" as="geometry" />
        </mxCell>
        <mxCell id="aLk7saEssHCHjSoOLKpw-174" value="" style="rounded=0;whiteSpace=wrap;html=1;" vertex="1" parent="1">
          <mxGeometry x="565" y="420" width="30" height="30" as="geometry" />
        </mxCell>
        <mxCell id="aLk7saEssHCHjSoOLKpw-175" value="x24" style="rounded=0;whiteSpace=wrap;html=1;" vertex="1" parent="1">
          <mxGeometry x="535" y="420" width="30" height="30" as="geometry" />
        </mxCell>
        <mxCell id="aLk7saEssHCHjSoOLKpw-176" value="" style="rounded=0;whiteSpace=wrap;html=1;" vertex="1" parent="1">
          <mxGeometry x="505" y="420" width="30" height="30" as="geometry" />
        </mxCell>
        <mxCell id="aLk7saEssHCHjSoOLKpw-177" value="" style="rounded=0;whiteSpace=wrap;html=1;" vertex="1" parent="1">
          <mxGeometry x="475" y="420" width="30" height="30" as="geometry" />
        </mxCell>
        <mxCell id="aLk7saEssHCHjSoOLKpw-178" value="" style="rounded=0;whiteSpace=wrap;html=1;" vertex="1" parent="1">
          <mxGeometry x="445" y="420" width="30" height="30" as="geometry" />
        </mxCell>
        <mxCell id="aLk7saEssHCHjSoOLKpw-179" value="" style="rounded=0;whiteSpace=wrap;html=1;" vertex="1" parent="1">
          <mxGeometry x="415" y="420" width="30" height="30" as="geometry" />
        </mxCell>
        <mxCell id="aLk7saEssHCHjSoOLKpw-180" value="" style="rounded=0;whiteSpace=wrap;html=1;" vertex="1" parent="1">
          <mxGeometry x="325" y="420" width="30" height="30" as="geometry" />
        </mxCell>
        <mxCell id="aLk7saEssHCHjSoOLKpw-181" value="x25" style="rounded=0;whiteSpace=wrap;html=1;" vertex="1" parent="1">
          <mxGeometry x="565" y="420" width="30" height="30" as="geometry" />
        </mxCell>
        <mxCell id="aLk7saEssHCHjSoOLKpw-183" value="x23" style="rounded=0;whiteSpace=wrap;html=1;" vertex="1" parent="1">
          <mxGeometry x="505" y="420" width="30" height="30" as="geometry" />
        </mxCell>
        <mxCell id="aLk7saEssHCHjSoOLKpw-184" value="x22" style="rounded=0;whiteSpace=wrap;html=1;" vertex="1" parent="1">
          <mxGeometry x="475" y="420" width="30" height="30" as="geometry" />
        </mxCell>
        <mxCell id="aLk7saEssHCHjSoOLKpw-185" value="x21" style="rounded=0;whiteSpace=wrap;html=1;" vertex="1" parent="1">
          <mxGeometry x="445" y="420" width="30" height="30" as="geometry" />
        </mxCell>
        <mxCell id="aLk7saEssHCHjSoOLKpw-186" value="x20" style="rounded=0;whiteSpace=wrap;html=1;" vertex="1" parent="1">
          <mxGeometry x="415" y="420" width="30" height="30" as="geometry" />
        </mxCell>
        <mxCell id="aLk7saEssHCHjSoOLKpw-187" value="x17" style="rounded=0;whiteSpace=wrap;html=1;" vertex="1" parent="1">
          <mxGeometry x="325" y="420" width="30" height="30" as="geometry" />
        </mxCell>
        <mxCell id="aLk7saEssHCHjSoOLKpw-188" value="x26" style="rounded=0;whiteSpace=wrap;html=1;" vertex="1" parent="1">
          <mxGeometry x="595" y="420" width="30" height="30" as="geometry" />
        </mxCell>
        <mxCell id="aLk7saEssHCHjSoOLKpw-189" value="x29" style="rounded=0;whiteSpace=wrap;html=1;" vertex="1" parent="1">
          <mxGeometry x="685" y="420" width="30" height="30" as="geometry" />
        </mxCell>
        <mxCell id="aLk7saEssHCHjSoOLKpw-190" value="x28" style="rounded=0;whiteSpace=wrap;html=1;" vertex="1" parent="1">
          <mxGeometry x="655" y="420" width="30" height="30" as="geometry" />
        </mxCell>
        <mxCell id="aLk7saEssHCHjSoOLKpw-193" value="x31" style="rounded=0;whiteSpace=wrap;html=1;" vertex="1" parent="1">
          <mxGeometry x="745" y="420" width="30" height="30" as="geometry" />
        </mxCell>
        <mxCell id="aLk7saEssHCHjSoOLKpw-194" value="x30" style="rounded=0;whiteSpace=wrap;html=1;" vertex="1" parent="1">
          <mxGeometry x="715" y="420" width="30" height="30" as="geometry" />
        </mxCell>
        <mxCell id="aLk7saEssHCHjSoOLKpw-195" value="x27" style="rounded=0;whiteSpace=wrap;html=1;" vertex="1" parent="1">
          <mxGeometry x="625" y="420" width="30" height="30" as="geometry" />
        </mxCell>
        <mxCell id="aLk7saEssHCHjSoOLKpw-197" value="&lt;font style=&quot;font-size: 20px;&quot;&gt;ScoreBoard&lt;/font&gt;" style="text;html=1;align=center;verticalAlign=middle;resizable=0;points=[];autosize=1;strokeColor=none;fillColor=none;" vertex="1" parent="1">
          <mxGeometry x="485" y="350" width="130" height="40" as="geometry" />
        </mxCell>
        <mxCell id="aLk7saEssHCHjSoOLKpw-198" value="" style="endArrow=classic;html=1;rounded=0;strokeWidth=3;entryX=0.106;entryY=1.001;entryDx=0;entryDy=0;entryPerimeter=0;" edge="1" parent="1">
          <mxGeometry width="50" height="50" relative="1" as="geometry">
            <mxPoint x="443.75" y="550" as="sourcePoint" />
            <mxPoint x="443.75" y="489" as="targetPoint" />
          </mxGeometry>
        </mxCell>
        <mxCell id="aLk7saEssHCHjSoOLKpw-199" value="pipe0_rd_e1_w&lt;br&gt;[4:0]" style="text;html=1;align=center;verticalAlign=middle;resizable=0;points=[];autosize=1;strokeColor=none;fillColor=none;" vertex="1" parent="1">
          <mxGeometry x="258.75" y="560" width="110" height="40" as="geometry" />
        </mxCell>
        <mxCell id="aLk7saEssHCHjSoOLKpw-200" value="pipe0_rd_e1_w&lt;br&gt;[4:0]" style="text;html=1;align=center;verticalAlign=middle;resizable=0;points=[];autosize=1;strokeColor=none;fillColor=none;" vertex="1" parent="1">
          <mxGeometry x="383.75" y="560" width="110" height="40" as="geometry" />
        </mxCell>
        <mxCell id="aLk7saEssHCHjSoOLKpw-201" value="" style="endArrow=classic;html=1;rounded=0;strokeWidth=3;entryX=0.106;entryY=1.001;entryDx=0;entryDy=0;entryPerimeter=0;" edge="1" parent="1">
          <mxGeometry width="50" height="50" relative="1" as="geometry">
            <mxPoint x="639.0899999999999" y="550" as="sourcePoint" />
            <mxPoint x="638.75" y="489.14999999999986" as="targetPoint" />
          </mxGeometry>
        </mxCell>
        <mxCell id="aLk7saEssHCHjSoOLKpw-202" value="" style="endArrow=classic;html=1;rounded=0;strokeWidth=3;entryX=0.106;entryY=1.001;entryDx=0;entryDy=0;entryPerimeter=0;" edge="1" parent="1">
          <mxGeometry width="50" height="50" relative="1" as="geometry">
            <mxPoint x="768.75" y="550" as="sourcePoint" />
            <mxPoint x="768.75" y="489" as="targetPoint" />
          </mxGeometry>
        </mxCell>
        <mxCell id="aLk7saEssHCHjSoOLKpw-203" value="pipe0_rd_e1_w&lt;br&gt;[4:0]" style="text;html=1;align=center;verticalAlign=middle;resizable=0;points=[];autosize=1;strokeColor=none;fillColor=none;" vertex="1" parent="1">
          <mxGeometry x="588.75" y="560" width="110" height="40" as="geometry" />
        </mxCell>
        <mxCell id="aLk7saEssHCHjSoOLKpw-204" value="pipe0_rd_e1_w&lt;br&gt;[4:0]" style="text;html=1;align=center;verticalAlign=middle;resizable=0;points=[];autosize=1;strokeColor=none;fillColor=none;" vertex="1" parent="1">
          <mxGeometry x="713.75" y="560" width="110" height="40" as="geometry" />
        </mxCell>
        <mxCell id="aLk7saEssHCHjSoOLKpw-207" value="&lt;font style=&quot;font-size: 20px;&quot;&gt;Issue&lt;/font&gt;" style="rounded=1;whiteSpace=wrap;html=1;" vertex="1" parent="1">
          <mxGeometry x="110" y="60" width="850" height="170" as="geometry" />
        </mxCell>
        <mxCell id="aLk7saEssHCHjSoOLKpw-208" value="" style="endArrow=classic;html=1;rounded=0;strokeWidth=3;exitX=0.083;exitY=1.001;exitDx=0;exitDy=0;exitPerimeter=0;entryX=0.083;entryY=-0.005;entryDx=0;entryDy=0;entryPerimeter=0;" edge="1" parent="1">
          <mxGeometry width="50" height="50" relative="1" as="geometry">
            <mxPoint x="192.17999999999984" y="230.17000000000007" as="sourcePoint" />
            <mxPoint x="192.17999999999984" y="338.25" as="targetPoint" />
          </mxGeometry>
        </mxCell>
        <mxCell id="aLk7saEssHCHjSoOLKpw-209" value="issue_a_ra_idx_w[4:0]" style="text;html=1;align=center;verticalAlign=middle;resizable=0;points=[];autosize=1;strokeColor=none;fillColor=none;" vertex="1" parent="1">
          <mxGeometry x="122.5" y="200" width="140" height="30" as="geometry" />
        </mxCell>
        <mxCell id="aLk7saEssHCHjSoOLKpw-210" value="" style="endArrow=classic;html=1;rounded=0;strokeWidth=3;exitX=0.109;exitY=0.998;exitDx=0;exitDy=0;exitPerimeter=0;entryX=0.108;entryY=-0.002;entryDx=0;entryDy=0;entryPerimeter=0;" edge="1" parent="1">
          <mxGeometry width="50" height="50" relative="1" as="geometry">
            <mxPoint x="320" y="230" as="sourcePoint" />
            <mxPoint x="321" y="339" as="targetPoint" />
          </mxGeometry>
        </mxCell>
        <mxCell id="aLk7saEssHCHjSoOLKpw-211" value="issue_a_rb_idx_w[4:0]" style="text;html=1;align=center;verticalAlign=middle;resizable=0;points=[];autosize=1;strokeColor=none;fillColor=none;" vertex="1" parent="1">
          <mxGeometry x="255" y="200" width="140" height="30" as="geometry" />
        </mxCell>
        <mxCell id="aLk7saEssHCHjSoOLKpw-212" value="" style="endArrow=classic;html=1;rounded=0;strokeWidth=3;exitX=0.109;exitY=0.998;exitDx=0;exitDy=0;exitPerimeter=0;entryX=0.108;entryY=-0.002;entryDx=0;entryDy=0;entryPerimeter=0;" edge="1" parent="1">
          <mxGeometry width="50" height="50" relative="1" as="geometry">
            <mxPoint x="460" y="230" as="sourcePoint" />
            <mxPoint x="461" y="339" as="targetPoint" />
          </mxGeometry>
        </mxCell>
        <mxCell id="aLk7saEssHCHjSoOLKpw-213" value="issue_a_rd_idx_w[4:0]" style="text;html=1;align=center;verticalAlign=middle;resizable=0;points=[];autosize=1;strokeColor=none;fillColor=none;" vertex="1" parent="1">
          <mxGeometry x="395" y="200" width="140" height="30" as="geometry" />
        </mxCell>
        <mxCell id="aLk7saEssHCHjSoOLKpw-215" value="" style="endArrow=classic;html=1;rounded=0;strokeWidth=3;exitX=0.083;exitY=1.001;exitDx=0;exitDy=0;exitPerimeter=0;entryX=0.083;entryY=-0.005;entryDx=0;entryDy=0;entryPerimeter=0;" edge="1" parent="1">
          <mxGeometry width="50" height="50" relative="1" as="geometry">
            <mxPoint x="595" y="230" as="sourcePoint" />
            <mxPoint x="595" y="338" as="targetPoint" />
          </mxGeometry>
        </mxCell>
        <mxCell id="aLk7saEssHCHjSoOLKpw-216" value="issue_b_ra_idx_w[4:0]" style="text;html=1;align=center;verticalAlign=middle;resizable=0;points=[];autosize=1;strokeColor=none;fillColor=none;" vertex="1" parent="1">
          <mxGeometry x="525" y="200" width="140" height="30" as="geometry" />
        </mxCell>
        <mxCell id="aLk7saEssHCHjSoOLKpw-217" value="" style="endArrow=classic;html=1;rounded=0;strokeWidth=3;exitX=0.109;exitY=0.998;exitDx=0;exitDy=0;exitPerimeter=0;entryX=0.108;entryY=-0.002;entryDx=0;entryDy=0;entryPerimeter=0;" edge="1" parent="1">
          <mxGeometry width="50" height="50" relative="1" as="geometry">
            <mxPoint x="722.5" y="230" as="sourcePoint" />
            <mxPoint x="723.5" y="339" as="targetPoint" />
          </mxGeometry>
        </mxCell>
        <mxCell id="aLk7saEssHCHjSoOLKpw-218" value="issue_b_rb_idx_w[4:0]" style="text;html=1;align=center;verticalAlign=middle;resizable=0;points=[];autosize=1;strokeColor=none;fillColor=none;" vertex="1" parent="1">
          <mxGeometry x="657.5" y="200" width="140" height="30" as="geometry" />
        </mxCell>
        <mxCell id="aLk7saEssHCHjSoOLKpw-219" value="" style="endArrow=classic;html=1;rounded=0;strokeWidth=3;exitX=0.109;exitY=0.998;exitDx=0;exitDy=0;exitPerimeter=0;entryX=0.108;entryY=-0.002;entryDx=0;entryDy=0;entryPerimeter=0;" edge="1" parent="1">
          <mxGeometry width="50" height="50" relative="1" as="geometry">
            <mxPoint x="862.5" y="230" as="sourcePoint" />
            <mxPoint x="863.5" y="339" as="targetPoint" />
          </mxGeometry>
        </mxCell>
        <mxCell id="aLk7saEssHCHjSoOLKpw-220" value="issue_b_rd_idx_w[4:0]" style="text;html=1;align=center;verticalAlign=middle;resizable=0;points=[];autosize=1;strokeColor=none;fillColor=none;" vertex="1" parent="1">
          <mxGeometry x="797.5" y="200" width="140" height="30" as="geometry" />
        </mxCell>
        <mxCell id="aLk7saEssHCHjSoOLKpw-221" value="" style="endArrow=classic;html=1;rounded=0;strokeWidth=3;exitX=1;exitY=0.25;exitDx=0;exitDy=0;" edge="1" parent="1">
          <mxGeometry width="50" height="50" relative="1" as="geometry">
            <mxPoint x="960" y="368" as="sourcePoint" />
            <mxPoint x="1120" y="368" as="targetPoint" />
          </mxGeometry>
        </mxCell>
        <mxCell id="aLk7saEssHCHjSoOLKpw-222" value="" style="endArrow=classic;html=1;rounded=0;strokeWidth=3;exitX=1;exitY=0.25;exitDx=0;exitDy=0;" edge="1" parent="1">
          <mxGeometry width="50" height="50" relative="1" as="geometry">
            <mxPoint x="960" y="398" as="sourcePoint" />
            <mxPoint x="1120" y="398" as="targetPoint" />
          </mxGeometry>
        </mxCell>
        <mxCell id="aLk7saEssHCHjSoOLKpw-223" value="" style="endArrow=classic;html=1;rounded=0;strokeWidth=3;exitX=1;exitY=0.25;exitDx=0;exitDy=0;" edge="1" parent="1">
          <mxGeometry width="50" height="50" relative="1" as="geometry">
            <mxPoint x="960" y="427.62" as="sourcePoint" />
            <mxPoint x="1120" y="427.62" as="targetPoint" />
          </mxGeometry>
        </mxCell>
        <mxCell id="aLk7saEssHCHjSoOLKpw-224" value="" style="endArrow=classic;html=1;rounded=0;strokeWidth=3;exitX=1;exitY=0.25;exitDx=0;exitDy=0;" edge="1" parent="1">
          <mxGeometry width="50" height="50" relative="1" as="geometry">
            <mxPoint x="960" y="458" as="sourcePoint" />
            <mxPoint x="1120" y="458" as="targetPoint" />
          </mxGeometry>
        </mxCell>
        <mxCell id="aLk7saEssHCHjSoOLKpw-229" value="opcode_a_issue_r" style="text;html=1;align=center;verticalAlign=middle;resizable=0;points=[];autosize=1;strokeColor=none;fillColor=none;" vertex="1" parent="1">
          <mxGeometry x="953" y="344" width="120" height="30" as="geometry" />
        </mxCell>
        <mxCell id="aLk7saEssHCHjSoOLKpw-230" value="opcode_b_issue_r" style="text;html=1;align=center;verticalAlign=middle;resizable=0;points=[];autosize=1;strokeColor=none;fillColor=none;" vertex="1" parent="1">
          <mxGeometry x="954" y="373" width="120" height="30" as="geometry" />
        </mxCell>
        <mxCell id="aLk7saEssHCHjSoOLKpw-231" value="pipe1_mux_lsu_r" style="text;html=1;align=center;verticalAlign=middle;resizable=0;points=[];autosize=1;strokeColor=none;fillColor=none;" vertex="1" parent="1">
          <mxGeometry x="956" y="403" width="110" height="30" as="geometry" />
        </mxCell>
        <mxCell id="aLk7saEssHCHjSoOLKpw-232" value="pipe1_mux_mul_r" style="text;html=1;align=center;verticalAlign=middle;resizable=0;points=[];autosize=1;strokeColor=none;fillColor=none;" vertex="1" parent="1">
          <mxGeometry x="953" y="433" width="120" height="30" as="geometry" />
        </mxCell>
        <mxCell id="aLk7saEssHCHjSoOLKpw-233" value="&lt;font style=&quot;font-size: 20px;&quot;&gt;pc_x_q&lt;/font&gt;" style="rounded=1;whiteSpace=wrap;html=1;" vertex="1" parent="1">
          <mxGeometry x="436.25" y="1100" width="262.5" height="290" as="geometry" />
        </mxCell>
        <mxCell id="aLk7saEssHCHjSoOLKpw-234" value="branch_csr_pc_i[31:0]" style="text;html=1;align=center;verticalAlign=middle;resizable=0;points=[];autosize=1;strokeColor=none;fillColor=none;" vertex="1" parent="1">
          <mxGeometry x="221.75" y="1128" width="140" height="30" as="geometry" />
        </mxCell>
        <mxCell id="aLk7saEssHCHjSoOLKpw-236" value="" style="endArrow=classic;html=1;rounded=0;strokeWidth=3;entryX=-0.004;entryY=0.178;entryDx=0;entryDy=0;entryPerimeter=0;" edge="1" parent="1">
          <mxGeometry width="50" height="50" relative="1" as="geometry">
            <mxPoint x="359.75" y="1143" as="sourcePoint" />
            <mxPoint x="435.99999999999994" y="1143.0000000000002" as="targetPoint" />
          </mxGeometry>
        </mxCell>
        <mxCell id="aLk7saEssHCHjSoOLKpw-237" value="branch_d_exec1_pc_i[31:0]" style="text;html=1;align=center;verticalAlign=middle;resizable=0;points=[];autosize=1;strokeColor=none;fillColor=none;" vertex="1" parent="1">
          <mxGeometry x="191.75" y="1173" width="170" height="30" as="geometry" />
        </mxCell>
        <mxCell id="aLk7saEssHCHjSoOLKpw-238" value="" style="endArrow=classic;html=1;rounded=0;strokeWidth=3;entryX=-0.004;entryY=0.178;entryDx=0;entryDy=0;entryPerimeter=0;" edge="1" parent="1">
          <mxGeometry width="50" height="50" relative="1" as="geometry">
            <mxPoint x="359.75" y="1188" as="sourcePoint" />
            <mxPoint x="435.99999999999994" y="1188.0000000000002" as="targetPoint" />
          </mxGeometry>
        </mxCell>
        <mxCell id="aLk7saEssHCHjSoOLKpw-239" value="branch_d_exec0_pc_i[31:0]" style="text;html=1;align=center;verticalAlign=middle;resizable=0;points=[];autosize=1;strokeColor=none;fillColor=none;" vertex="1" parent="1">
          <mxGeometry x="191.75" y="1223" width="170" height="30" as="geometry" />
        </mxCell>
        <mxCell id="aLk7saEssHCHjSoOLKpw-240" value="" style="endArrow=classic;html=1;rounded=0;strokeWidth=3;entryX=-0.004;entryY=0.178;entryDx=0;entryDy=0;entryPerimeter=0;" edge="1" parent="1">
          <mxGeometry width="50" height="50" relative="1" as="geometry">
            <mxPoint x="359.75" y="1238" as="sourcePoint" />
            <mxPoint x="435.99999999999994" y="1238.0000000000002" as="targetPoint" />
          </mxGeometry>
        </mxCell>
        <mxCell id="aLk7saEssHCHjSoOLKpw-242" value="" style="endArrow=classic;html=1;rounded=0;strokeWidth=3;entryX=-0.004;entryY=0.178;entryDx=0;entryDy=0;entryPerimeter=0;" edge="1" parent="1">
          <mxGeometry width="50" height="50" relative="1" as="geometry">
            <mxPoint x="359.75" y="1289" as="sourcePoint" />
            <mxPoint x="435.99999999999994" y="1289.0000000000002" as="targetPoint" />
          </mxGeometry>
        </mxCell>
        <mxCell id="aLk7saEssHCHjSoOLKpw-244" value="" style="endArrow=classic;html=1;rounded=0;strokeWidth=3;entryX=-0.004;entryY=0.178;entryDx=0;entryDy=0;entryPerimeter=0;" edge="1" parent="1">
          <mxGeometry width="50" height="50" relative="1" as="geometry">
            <mxPoint x="360" y="1337.5" as="sourcePoint" />
            <mxPoint x="436.24999999999994" y="1337.5000000000002" as="targetPoint" />
          </mxGeometry>
        </mxCell>
        <mxCell id="aLk7saEssHCHjSoOLKpw-245" value="pc_x_q + 32&#39;d8" style="text;html=1;align=center;verticalAlign=middle;resizable=0;points=[];autosize=1;strokeColor=none;fillColor=none;" vertex="1" parent="1">
          <mxGeometry x="259.75" y="1273" width="100" height="30" as="geometry" />
        </mxCell>
        <mxCell id="aLk7saEssHCHjSoOLKpw-246" value="pc_x_q + 32&#39;d4" style="text;html=1;align=center;verticalAlign=middle;resizable=0;points=[];autosize=1;strokeColor=none;fillColor=none;" vertex="1" parent="1">
          <mxGeometry x="259.75" y="1323" width="100" height="30" as="geometry" />
        </mxCell>
        <mxCell id="aLk7saEssHCHjSoOLKpw-247" value="pc_x_q[31:0]" style="text;html=1;align=center;verticalAlign=middle;resizable=0;points=[];autosize=1;strokeColor=none;fillColor=none;" vertex="1" parent="1">
          <mxGeometry x="770" y="1223" width="90" height="30" as="geometry" />
        </mxCell>
        <mxCell id="aLk7saEssHCHjSoOLKpw-248" value="" style="endArrow=classic;html=1;rounded=0;strokeWidth=3;entryX=-0.004;entryY=0.178;entryDx=0;entryDy=0;entryPerimeter=0;" edge="1" parent="1">
          <mxGeometry width="50" height="50" relative="1" as="geometry">
            <mxPoint x="698.75" y="1240" as="sourcePoint" />
            <mxPoint x="775" y="1240.0000000000002" as="targetPoint" />
          </mxGeometry>
        </mxCell>
        <mxCell id="aLk7saEssHCHjSoOLKpw-250" value="pc_x_q [31:0]" style="text;html=1;align=center;verticalAlign=middle;resizable=0;points=[];autosize=1;strokeColor=none;fillColor=none;" vertex="1" parent="1">
          <mxGeometry x="30.25" y="1914" width="100" height="30" as="geometry" />
        </mxCell>
        <mxCell id="aLk7saEssHCHjSoOLKpw-251" value="" style="endArrow=classic;html=1;rounded=0;strokeWidth=3;entryX=0.5;entryY=1;entryDx=0;entryDy=0;" edge="1" parent="1" target="aLk7saEssHCHjSoOLKpw-262">
          <mxGeometry width="50" height="50" relative="1" as="geometry">
            <mxPoint x="127.25" y="1930" as="sourcePoint" />
            <mxPoint x="193.24999999999994" y="1933.0000000000002" as="targetPoint" />
            <Array as="points">
              <mxPoint x="267.25" y="1930" />
            </Array>
          </mxGeometry>
        </mxCell>
        <mxCell id="aLk7saEssHCHjSoOLKpw-252" value="fetch0_pc_i[31:0]" style="text;html=1;align=center;verticalAlign=middle;resizable=0;points=[];autosize=1;strokeColor=none;fillColor=none;" vertex="1" parent="1">
          <mxGeometry x="16.25" y="1838.5" width="110" height="30" as="geometry" />
        </mxCell>
        <mxCell id="aLk7saEssHCHjSoOLKpw-253" value="" style="endArrow=classic;html=1;rounded=0;strokeWidth=3;entryX=0;entryY=0.5;entryDx=0;entryDy=0;" edge="1" parent="1" target="aLk7saEssHCHjSoOLKpw-262">
          <mxGeometry width="50" height="50" relative="1" as="geometry">
            <mxPoint x="127.25" y="1854" as="sourcePoint" />
            <mxPoint x="252.25" y="1853.3000000000002" as="targetPoint" />
          </mxGeometry>
        </mxCell>
        <mxCell id="aLk7saEssHCHjSoOLKpw-262" value="&lt;font style=&quot;font-size: 20px;&quot;&gt;=&lt;/font&gt;" style="ellipse;whiteSpace=wrap;html=1;aspect=fixed;" vertex="1" parent="1">
          <mxGeometry x="254.25" y="1840" width="27" height="27" as="geometry" />
        </mxCell>
        <mxCell id="aLk7saEssHCHjSoOLKpw-265" value="" style="endArrow=classic;html=1;rounded=0;strokeWidth=3;" edge="1" parent="1">
          <mxGeometry width="50" height="50" relative="1" as="geometry">
            <mxPoint x="281.25" y="1853.21" as="sourcePoint" />
            <mxPoint x="407.25" y="1853" as="targetPoint" />
          </mxGeometry>
        </mxCell>
        <mxCell id="aLk7saEssHCHjSoOLKpw-267" value="slot0_valid_r" style="text;html=1;align=center;verticalAlign=middle;resizable=0;points=[];autosize=1;strokeColor=none;fillColor=none;" vertex="1" parent="1">
          <mxGeometry x="403.75" y="1837" width="90" height="30" as="geometry" />
        </mxCell>
        <mxCell id="aLk7saEssHCHjSoOLKpw-273" value="&lt;font style=&quot;font-size: 20px;&quot;&gt;Issue Select&lt;/font&gt;" style="text;html=1;align=center;verticalAlign=middle;resizable=0;points=[];autosize=1;strokeColor=none;fillColor=none;" vertex="1" parent="1">
          <mxGeometry x="202.75" y="1790" width="130" height="40" as="geometry" />
        </mxCell>
        <mxCell id="aLk7saEssHCHjSoOLKpw-274" value="" style="rounded=1;whiteSpace=wrap;html=1;" vertex="1" parent="1">
          <mxGeometry x="440" y="1990" width="200" height="180" as="geometry" />
        </mxCell>
        <mxCell id="aLk7saEssHCHjSoOLKpw-275" value="pc_x_q [31:0]" style="text;html=1;align=center;verticalAlign=middle;resizable=0;points=[];autosize=1;strokeColor=none;fillColor=none;" vertex="1" parent="1">
          <mxGeometry x="303" y="2124" width="100" height="30" as="geometry" />
        </mxCell>
        <mxCell id="aLk7saEssHCHjSoOLKpw-276" value="" style="endArrow=classic;html=1;rounded=0;strokeWidth=3;entryX=0.5;entryY=1;entryDx=0;entryDy=0;" edge="1" parent="1" target="aLk7saEssHCHjSoOLKpw-281">
          <mxGeometry width="50" height="50" relative="1" as="geometry">
            <mxPoint x="400" y="2140" as="sourcePoint" />
            <mxPoint x="465.99999999999994" y="2143" as="targetPoint" />
            <Array as="points">
              <mxPoint x="540" y="2140" />
            </Array>
          </mxGeometry>
        </mxCell>
        <mxCell id="aLk7saEssHCHjSoOLKpw-277" value="fetch1_pc_i[31:0]" style="text;html=1;align=center;verticalAlign=middle;resizable=0;points=[];autosize=1;strokeColor=none;fillColor=none;" vertex="1" parent="1">
          <mxGeometry x="289" y="2048.5" width="110" height="30" as="geometry" />
        </mxCell>
        <mxCell id="aLk7saEssHCHjSoOLKpw-278" value="" style="endArrow=classic;html=1;rounded=0;strokeWidth=3;entryX=0;entryY=0.5;entryDx=0;entryDy=0;" edge="1" parent="1" target="aLk7saEssHCHjSoOLKpw-281">
          <mxGeometry width="50" height="50" relative="1" as="geometry">
            <mxPoint x="400" y="2064" as="sourcePoint" />
            <mxPoint x="525" y="2063.3" as="targetPoint" />
          </mxGeometry>
        </mxCell>
        <mxCell id="aLk7saEssHCHjSoOLKpw-281" value="&lt;font style=&quot;font-size: 20px;&quot;&gt;=&lt;/font&gt;" style="ellipse;whiteSpace=wrap;html=1;aspect=fixed;" vertex="1" parent="1">
          <mxGeometry x="527" y="2050" width="27" height="27" as="geometry" />
        </mxCell>
        <mxCell id="aLk7saEssHCHjSoOLKpw-283" value="" style="endArrow=classic;html=1;rounded=0;strokeWidth=3;" edge="1" parent="1">
          <mxGeometry width="50" height="50" relative="1" as="geometry">
            <mxPoint x="554" y="2063.21" as="sourcePoint" />
            <mxPoint x="680" y="2063" as="targetPoint" />
          </mxGeometry>
        </mxCell>
        <mxCell id="aLk7saEssHCHjSoOLKpw-285" value="slot1_valid_r" style="text;html=1;align=center;verticalAlign=middle;resizable=0;points=[];autosize=1;strokeColor=none;fillColor=none;" vertex="1" parent="1">
          <mxGeometry x="676.5" y="2047" width="90" height="30" as="geometry" />
        </mxCell>
        <mxCell id="aLk7saEssHCHjSoOLKpw-287" value="" style="endArrow=classic;html=1;rounded=0;strokeWidth=3;exitX=1.001;exitY=0.538;exitDx=0;exitDy=0;exitPerimeter=0;" edge="1" parent="1">
          <mxGeometry width="50" height="50" relative="1" as="geometry">
            <mxPoint x="640" y="2139.5" as="sourcePoint" />
            <mxPoint x="680" y="2140" as="targetPoint" />
          </mxGeometry>
        </mxCell>
        <mxCell id="aLk7saEssHCHjSoOLKpw-288" value="mispredicted_r" style="text;html=1;align=center;verticalAlign=middle;resizable=0;points=[];autosize=1;strokeColor=none;fillColor=none;" vertex="1" parent="1">
          <mxGeometry x="678" y="2124" width="100" height="30" as="geometry" />
        </mxCell>
        <mxCell id="aLk7saEssHCHjSoOLKpw-289" value="&lt;font style=&quot;font-size: 20px;&quot;&gt;Issue Select&lt;/font&gt;" style="text;html=1;align=center;verticalAlign=middle;resizable=0;points=[];autosize=1;strokeColor=none;fillColor=none;" vertex="1" parent="1">
          <mxGeometry x="475.5" y="2000" width="130" height="40" as="geometry" />
        </mxCell>
        <mxCell id="aLk7saEssHCHjSoOLKpw-292" value="" style="rounded=1;whiteSpace=wrap;html=1;" vertex="1" parent="1">
          <mxGeometry x="440" y="2200" width="200" height="180" as="geometry" />
        </mxCell>
        <mxCell id="aLk7saEssHCHjSoOLKpw-300" value="" style="endArrow=classic;html=1;rounded=0;strokeWidth=3;exitX=1.001;exitY=0.538;exitDx=0;exitDy=0;exitPerimeter=0;" edge="1" parent="1">
          <mxGeometry width="50" height="50" relative="1" as="geometry">
            <mxPoint x="640" y="2295.5" as="sourcePoint" />
            <mxPoint x="680" y="2296" as="targetPoint" />
          </mxGeometry>
        </mxCell>
        <mxCell id="aLk7saEssHCHjSoOLKpw-301" value="mispredicted_r" style="text;html=1;align=center;verticalAlign=middle;resizable=0;points=[];autosize=1;strokeColor=none;fillColor=none;" vertex="1" parent="1">
          <mxGeometry x="678" y="2280" width="100" height="30" as="geometry" />
        </mxCell>
        <mxCell id="aLk7saEssHCHjSoOLKpw-302" value="&lt;font style=&quot;font-size: 20px;&quot;&gt;Issue Select&lt;/font&gt;" style="text;html=1;align=center;verticalAlign=middle;resizable=0;points=[];autosize=1;strokeColor=none;fillColor=none;" vertex="1" parent="1">
          <mxGeometry x="475.5" y="2210" width="130" height="40" as="geometry" />
        </mxCell>
      </root>
    </mxGraphModel>
  </diagram>
</mxfile>
